<?xml version="1.0" encoding="utf-8"?>
<!-- Generator: Adobe Illustrator 15.1.0, SVG Export Plug-In . SVG Version: 6.00 Build 0)  -->
<!DOCTYPE svg PUBLIC "-//W3C//DTD SVG 1.1//EN" "http://www.w3.org/Graphics/SVG/1.1/DTD/svg11.dtd">
<svg version="1.1" id="Capa_1" xmlns="http://www.w3.org/2000/svg" xmlns:xlink="http://www.w3.org/1999/xlink" x="0px" y="0px"
	 width="850.395px" height="850.395px" viewBox="0 0 850.395 850.395" enable-background="new 0 0 850.395 850.395"
	 xml:space="preserve">
<g>
	<path fill="#E3A76F" d="M544.244,683.746V758.4c0,14.172-11.477,91.99-25.648,91.99H121.801c-14.171,0-25.647-77.832-25.647-91.99
		v-74.654c0-65.717,53.349-118.535,118.522-118.535h2.736c4.538-0.014,8.502-0.014,11.938-0.014
		c23.957-0.014,23.051,0.182,25.479-0.293c7.442-1.396,13.055-7.932,13.055-15.82v-43.602c0-3.463-2.053-6.562-5.221-7.986
		c-45-20.203-76.525-65.48-76.525-117.795V185.073h263.376v194.628c0,52.497-31.776,97.887-77.027,117.977v51.408
		c0,8.908,7.218,16.127,16.126,16.127c11.379,0.055,19.463,0.027,25.508,0.014c3.393-0.014,6.158-0.029,8.488-0.029
		c6.368,0,9.634,0.113,14.354,0.572C497.164,571.424,544.244,622.092,544.244,683.746z"/>
	<path fill="#F2BB88" d="M544.244,683.746V758.4c0,14.172-11.477,91.99-25.648,91.99H167.776c-14.157,0-25.634-77.818-25.634-91.975
		v-74.668c0-65.719,53.348-110.479,118.508-110.479c39.052-0.113,37.307,0.25,40.168-0.309c7.427-1.396,13.055-7.93,13.055-15.818
		v-51.658c0-3.463-2.053-6.562-5.222-7.986c-45.013-20.203-76.538-65.48-76.538-117.795v-194.63h217.398v194.628
		c0,52.497-31.776,97.887-77.026,117.977v51.408c0,8.908,7.217,16.127,16.125,16.127c35.197,0.152,38.843-0.377,48.351,0.557
		C497.164,571.424,544.244,622.092,544.244,683.746z"/>
	<path fill="#E3A76F" d="M150.252,362.495c0,23.082,18.712,41.795,41.794,41.795v-83.588
		C168.964,320.7,150.252,339.412,150.252,362.495z"/>
	<path fill="#F2BB88" d="M443.598,320.7v83.588c23.082,0,41.793-18.711,41.793-41.794C485.391,339.412,466.68,320.7,443.598,320.7z"
		/>
	<g>
		<circle fill="#7C3F2C" cx="253.845" cy="337.176" r="15.135"/>
		<circle fill="#7C3F2C" cx="381.483" cy="337.176" r="15.135"/>
	</g>
	<path fill="#FF883E" d="M318.886,448.717c-26.078,0-47.292-21.215-47.292-47.292c0-5.784,4.688-10.472,10.472-10.472
		c5.785,0,10.473,4.688,10.473,10.472c0,14.529,11.821,26.351,26.35,26.351c14.527,0,26.349-11.823,26.349-26.351
		c0-5.784,4.688-10.472,10.473-10.472s10.473,4.688,10.473,10.472C366.18,427.502,344.963,448.717,318.886,448.717z"/>
	<path fill="#EBE1DC" d="M642.85,322.476v208.1c0,19.17-15.555,34.725-34.723,34.725c-84.723-0.037-193.835-0.07-194.015-0.07
		c-32.273,31.109-61.314,59.105-93.781,90.402l-90.99-90.43c-6.534,0-4.194,0.002-14.674,0.014
		c-65.175,0-118.522,52.816-118.522,118.535v74.654c0,14.158,11.476,91.988,25.646,91.988h396.795
		c14.17,0,25.648-11.477,25.648-25.646V683.752c0-5.92-0.434-11.729-1.27-17.41h121.914c35.268,0,63.861-28.594,63.861-63.861
		V322.476H642.85L642.85,322.476z"/>
	<path fill="#7C3F2C" d="M490.518,116.13v129.481c0,19.896-18.416,36.176-40.936,36.176h-1.705
		c-22.521,0-40.937-16.279-40.937-36.176v-13.096c0-3.016-4.09-4.51-6.52-2.4c-16.043,14.129-43.784,20.384-65.886,23.804
		l-122.822,17.368l-38.297,5.418c-13.012,0-23.554-9.313-23.554-20.817v-32.936c0-26.527,15.637-55.639,39.178-73.286
		c11.447-8.586,24.769-14.465,39.064-16.014c3.742-0.404,7.512-0.391,11.253-0.153c23.958,1.479,156.847,7.749,227.619-31.149
		C477.562,96.527,490.518,104.053,490.518,116.13z"/>
	<path fill="#954C35" d="M490.518,116.13v104.142c-0.922,0.057-1.844,0.084-2.779,0.084h-1.703
		c-22.521,0-40.936-16.279-40.936-36.175v-13.096c0-3.016-4.092-4.51-6.508-2.401c-16.056,14.13-43.798,20.385-65.898,23.805
		l-122.808,17.367l-38.312,5.418c-13.012,0-23.54-9.312-23.54-20.817V161.52c0-3.91,0.335-7.875,1.006-11.854
		c11.447-8.586,24.769-14.465,39.064-16.014c3.742-0.404,7.512-0.392,11.253-0.153c23.958,1.479,156.847,7.749,227.619-31.149
		C477.562,96.527,490.518,104.053,490.518,116.13z"/>
	<g>
		<circle fill="#736E6E" cx="295.215" cy="703.534" r="10.462"/>
		<circle fill="#736E6E" cx="295.215" cy="756.184" r="10.463"/>
	</g>
	<path fill="#65B1CF" d="M479.475,697.137v153.254h-97.161V697.137c0-1.605,1.312-2.918,2.918-2.918h91.325
		C478.176,694.219,479.475,695.531,479.475,697.137z"/>
	<path fill="#7FBED7" d="M479.475,697.137v153.254h-72.728V697.137c0-1.605,1.312-2.918,2.916-2.918h66.894
		C478.176,694.219,479.475,695.531,479.475,697.137z"/>
	<path fill="#65B1CF" d="M479.475,697.137v33.229h-97.161v-33.229c0-1.605,1.312-2.918,2.918-2.918h91.325
		C478.176,694.219,479.475,695.531,479.475,697.137z"/>
	<path fill="#B4AAAA" d="M330.669,670.26v180.131h-20.942V670.26c0-5.795,4.691-10.473,10.472-10.473
		C325.991,659.789,330.669,664.467,330.669,670.26z"/>
	<path fill="#3E9DC3" d="M409.663,694.219c-1.604,0-2.916,1.312-2.916,2.918v33.229h-24.434v-33.229
		c0-1.605,1.312-2.918,2.918-2.918H409.663z"/>
	<path fill="#DCD2CD" d="M134.547,683.746v140.996c0,14.158,11.477,25.648,25.647,25.648h-38.394
		c-14.171,0-25.647-11.49-25.647-25.648V683.746c0-65.717,53.349-118.535,118.522-118.535h2.736
		c4.538-0.014,8.502-0.014,11.938-0.014l2.024,2.012C176.461,577.385,134.547,625.5,134.547,683.746z"/>
	<path fill="#B4AAAA" d="M470.727,632.891l-36.139-68.797c-3.266-6.219-11.552-7.477-16.538-2.67l-93.543,90.18
		c-2.318,2.234-5.999,2.207-8.282-0.062l-93.517-92.934c-5.057-5.023-13.52-3.623-16.723,2.695
		c-33.597,66.451-36.407,71.605-36.925,73.084c-4.589,13.131,7.862,26.49,21.702,23.078c30.267-6.748,31.757-9.447,38.214-7.223
		c95.249,32.838,90.613,31.295,94.646,29.926c96.174-32.957,90.521-31.461,94.887-30.385l31.175,7.682
		C465.07,661.258,476.945,644.734,470.727,632.891z"/>
	<path fill="#F2BB88" d="M754.25,204.527c0-0.922,0,123.045,0,127.429c0,31.555-25.592,57.146-57.145,57.146h-33.049
		c-28.664,0-38.506-25.089-39.805-26.471c-11.936-20.398-25.41-26.527-50.975-48.867c-8.084-6.659-10.346-18.388-4.705-27.212
		c0.461-0.727,0.963-1.41,1.508-2.053c7.176-8.684,20.146-9.927,28.846-2.764l10.625,8.502c3.602,2.876,8.922,0.32,8.922-4.286
		V178.026c0-11.141,10.57-19.225,21.277-16.42c7.33,1.913,12.664,8.587,12.664,16.42c0.768-8.754-2.416-17.438,4.971-24.824
		c10.611-10.61,28.971-3.141,28.971,11.993v12.83c0-11.002,10.4-19.267,21.334-16.42c7.26,1.927,12.621,8.559,12.621,16.42v25.94
		c0-9.494,7.777-17.159,17.285-16.978c0.979,0.014,1.941,0.126,2.861,0.308C748.4,188.862,754.25,196.164,754.25,204.527z"/>
	<g>
		<path fill="#E3A76F" d="M652.371,176.938v109.153c0,3.491-2.82,6.312-6.311,6.312s-6.311-2.82-6.311-6.312V161.608
			C646.703,163.422,651.91,169.539,652.371,176.938z"/>
		<path fill="#E3A76F" d="M686.354,165.196v120.896c0,3.491-2.82,6.312-6.311,6.312s-6.311-2.82-6.311-6.312v-137.3
			C681.008,150.718,686.354,157.336,686.354,165.196z"/>
		<path fill="#E3A76F" d="M720.311,178.026v108.051c0,3.49-2.82,6.311-6.312,6.311c-3.49,0-6.311-2.82-6.311-6.311V161.606
			C714.947,163.535,720.311,170.167,720.311,178.026z"/>
	</g>
	<path fill="#B4AAAA" d="M754.25,383.321v11.673c0,11.337-9.27,20.607-20.594,20.607h-98.457c-11.324,0-20.596-9.271-20.596-20.607
		v-11.673c0-11.337,9.271-20.607,20.596-20.607h98.457C744.979,362.713,754.25,371.984,754.25,383.321z"/>
	<path fill="#DCD2CD" d="M754.25,383.321v9.928h-89.48c-11.322,0-20.594-9.271-20.594-20.607v-9.928h89.48
		C744.979,362.713,754.25,371.984,754.25,383.321z"/>
</g>
</svg>
