<?xml version="1.0" encoding="utf-8"?>
<!-- Generator: Adobe Illustrator 15.1.0, SVG Export Plug-In . SVG Version: 6.00 Build 0)  -->
<!DOCTYPE svg PUBLIC "-//W3C//DTD SVG 1.1//EN" "http://www.w3.org/Graphics/SVG/1.1/DTD/svg11.dtd">
<svg version="1.1" id="Capa_1" xmlns="http://www.w3.org/2000/svg" xmlns:xlink="http://www.w3.org/1999/xlink" x="0px" y="0px"
	 width="850.395px" height="850.395px" viewBox="0 0 850.395 850.395" enable-background="new 0 0 850.395 850.395"
	 xml:space="preserve">
<g>
	<rect x="211.969" y="208.973" fill="#41767F" width="426.456" height="255.874"/>
	<circle fill="#95A5A5" cx="425.198" cy="550.138" r="34.116"/>
	<path fill="#F29C1F" d="M374.022,678.073V632.99c1.333-27.293,23.849-48.738,51.176-48.738c27.326,0,49.842,21.445,51.175,48.738
		v45.083H374.022z"/>
	<circle fill="#95A5A5" cx="587.25" cy="550.138" r="34.116"/>
	<path fill="#4482C3" d="M536.077,678.073V632.99c1.331-27.293,23.847-48.738,51.175-48.738c27.325,0,49.841,21.445,51.175,48.738
		v45.083H536.077z"/>
	<circle fill="#95A5A5" cx="263.145" cy="550.138" r="34.116"/>
	<path fill="#CC66A1" d="M211.969,678.073V632.99c0.689-27.582,23.592-49.394,51.175-48.736
		c27.583-0.657,50.485,21.154,51.175,48.736v45.083H211.969z"/>
	<g>
		<path fill="#CB8252" d="M194.911,191.915h460.572c9.42,0,17.058,7.637,17.058,17.058l0,0c0,9.421-7.638,17.058-17.058,17.058
			H194.911c-9.421,0-17.058-7.637-17.058-17.058l0,0C177.854,199.552,185.49,191.915,194.911,191.915z"/>
		<path fill="#CB8252" d="M194.911,447.788h460.572c9.42,0,17.058,7.637,17.058,17.059l0,0c0,9.421-7.638,17.058-17.058,17.058
			H194.911c-9.421,0-17.058-7.637-17.058-17.058l0,0C177.854,455.425,185.49,447.788,194.911,447.788z"/>
	</g>
</g>
</svg>
