<?xml version="1.0" encoding="utf-8"?>
<!-- Generator: Adobe Illustrator 15.1.0, SVG Export Plug-In . SVG Version: 6.00 Build 0)  -->
<!DOCTYPE svg PUBLIC "-//W3C//DTD SVG 1.1//EN" "http://www.w3.org/Graphics/SVG/1.1/DTD/svg11.dtd">
<svg version="1.1" id="Capa_1" xmlns="http://www.w3.org/2000/svg" xmlns:xlink="http://www.w3.org/1999/xlink" x="0px" y="0px"
	 width="850.394px" height="850.394px" viewBox="850.393 3118.108 850.394 850.394"
	 enable-background="new 850.393 3118.108 850.394 850.394" xml:space="preserve">
<g>
	<path fill="#64505A" d="M1536.108,3667.596c0.839-57.801-18.428-67.854-28.062-101.777c-9.697-34.155,0.169-57.479-11.309-95.287
		c-10.68-35.183-30.082-41.126-36.02-91.098c-10.054-84.607-101.361-128.166-146.595-128.166c-12.79,0-21.527,3.246-27.399,7.13
		c-6.793,4.497-15.477,4.497-22.271,0c-5.873-3.884-14.606-7.13-27.397-7.13c-45.234,0-136.542,43.559-146.594,128.166
		c-5.938,49.971-25.339,55.916-36.02,91.098c-11.478,37.808-1.611,61.132-11.309,95.287c-9.633,33.924-28.9,43.977-28.062,101.777
		c0.971,67.03-37.696,82.093-22.618,126.491c11.253,33.134,72.041,60.311,72.041,60.311h422.192c0,0,60.788-27.182,72.042-60.311
		C1573.804,3749.688,1535.138,3734.626,1536.108,3667.596z"/>
	<path fill="#5A4650" d="M1275.59,3261.77c-3.87,0-7.74-1.124-11.137-3.372c-5.873-3.884-14.606-7.13-27.397-7.13
		c-45.234,0-136.542,43.559-146.594,128.166c-5.938,49.971-25.339,55.916-36.02,91.098c-11.478,37.808-1.611,61.132-11.309,95.287
		c-9.633,33.924-28.9,43.977-28.062,101.777c0.971,67.03-37.696,82.093-22.618,126.491c11.253,33.134,72.041,60.311,72.041,60.311
		h211.096V3261.77z"/>
	<path fill="#D1A28B" d="M1466.551,3739.677l-103.821-36.644c-16.074-5.675-26.828-20.868-26.828-37.916v-51.971h-120.626v51.971
		c0,17.048-10.75,32.241-26.827,37.916l-103.821,36.644c-24.114,8.51-40.239,31.303-40.239,56.874v47.796
		c0,16.654,13.501,124.155,30.156,124.155h402.089c16.655,0,30.157-107.501,30.157-124.155v-47.796
		C1506.791,3770.979,1490.664,3748.187,1466.551,3739.677z"/>
	<path fill="#BF8B71" d="M1215.276,3640.493c18.56,8.205,38.954,12.865,60.313,12.865c21.359,0,41.753-4.655,60.312-12.865v-27.347
		h-120.626L1215.276,3640.493L1215.276,3640.493z"/>
	<path fill="#E5AE93" d="M1275.59,3633.25L1275.59,3633.25c-72.173,0-130.679-58.506-130.679-130.678v-170.887h261.357v170.887
		C1406.269,3574.744,1347.761,3633.25,1275.59,3633.25z"/>
	<path fill="#D1A28B" d="M1144.911,3331.686v170.887c0,72.172,58.507,130.681,130.679,130.681c6.855,0,13.533-0.688,20.104-1.701
		c-62.601-9.698-110.574-63.661-110.574-128.979v-52.275c0-8.267,2.563-16.251,6.94-23.263c0.024-0.037,0.047-0.074,0.07-0.111
		c16.505-26.485,31.956-30.38,49.843-34.886c10.273-2.588,22.244-5.605,33.616-13.183c11.374,7.578,23.343,10.595,33.616,13.183
		c17.887,4.507,33.337,8.401,49.842,34.886c15.355,24.636,32.535,38.255,47.22,48.776v-144.015H1144.911z"/>
	<path fill="#A06E50" d="M1275.59,3582.989c-15.088,0-28.999-4.838-37.216-12.948c-3.956-3.907-3.995-10.267-0.099-14.214
		c3.917-3.955,10.279-3.994,14.215-0.099c3.346,3.3,11.396,7.157,23.099,7.157c11.701,0,19.753-3.857,23.097-7.157
		c3.938-3.897,10.301-3.856,14.216,0.099c3.899,3.947,3.856,10.307-0.098,14.214
		C1304.589,3578.151,1290.678,3582.989,1275.59,3582.989z"/>
	<g>
		<path fill="#493842" d="M1215.276,3502.572c-5.556,0-10.052-4.496-10.052-10.053v-10.052c0-5.556,4.497-10.053,10.052-10.053
			c5.556,0,10.052,4.497,10.052,10.053v10.052C1225.329,3498.076,1220.832,3502.572,1215.276,3502.572z"/>
		<path fill="#493842" d="M1335.901,3502.572c-5.555,0-10.051-4.496-10.051-10.053v-10.052c0-5.556,4.496-10.053,10.051-10.053
			c5.56,0,10.053,4.497,10.053,10.053v10.052C1345.954,3498.076,1341.461,3502.572,1335.901,3502.572z"/>
	</g>
	<g>
		<path fill="#607EEA" d="M1466.551,3739.677l-69.275-24.452c-27.263,37.683-64.366,79.239-107.559,102.267
			c-8.809,4.696-19.445,4.696-28.256,0c-43.19-23.027-80.295-64.584-107.558-102.267l-69.274,24.452
			c-24.114,8.51-40.239,31.303-40.239,56.874v47.796c0,16.654,13.502,124.155,30.156,124.155h40.659h20.104h281.012v-136.12
			c0-14.569,6.312-28.398,17.315-37.95l51.183-44.441C1479.482,3745.593,1473.332,3742.07,1466.551,3739.677z"/>
		<path fill="#4959B7" d="M1497.98,3765.176l0.17-0.147c-3.529-5.73-7.946-10.865-13.202-15.15l-0.129,0.112
			C1490.043,3754.293,1494.483,3759.438,1497.98,3765.176z"/>
		<path fill="#4959B7" d="M1497.98,3765.176c-3.497-5.738-7.938-10.883-13.161-15.186l-51.183,44.441
			c-11.004,9.552-17.315,23.381-17.315,37.95v136.12h20.104h40.208c16.655,0,30.157-107.501,30.157-124.155v-47.796
			C1506.791,3785.211,1503.613,3774.42,1497.98,3765.176z"/>
	</g>
	<path fill="#6E5A64" d="M1508.047,3565.818c-9.697-34.155,0.169-57.479-11.309-95.287c-10.68-35.183-30.082-41.126-36.02-91.098
		c-10.054-84.607-101.361-128.166-146.595-128.166c-12.79,0-21.527,3.246-27.399,7.13c-3.395,2.248-7.265,3.372-11.135,3.372v90.021
		c25.967,32.669,64.501,6.703,100.524,64.502c30.615,49.129,69.059,47.886,82.583,86.619c3.877,11.104,1.773,22.963,2.702,34.685
		c5.183,65.499,55.443,95.657,78.037,164.01c-2.157-9.761-3.518-20.865-3.328-34.01
		C1536.947,3609.795,1517.681,3599.742,1508.047,3565.818z"/>
	<path fill="#64505A" d="M1043.132,3565.818c9.698-34.155-0.169-57.479,11.308-95.287c10.681-35.183,30.083-41.126,36.02-91.098
		c10.053-84.607,101.361-128.166,146.595-128.166c12.791,0,21.524,3.246,27.397,7.13c3.397,2.248,7.267,3.372,11.137,3.372v90.021
		c-25.968,32.669-64.502,6.703-100.522,64.502c-30.617,49.129-69.062,47.886-82.585,86.619c-3.875,11.104-1.773,22.963-2.701,34.685
		c-5.184,65.499-55.444,95.657-78.037,164.01c2.154-9.761,3.516-20.865,3.325-34.01
		C1014.232,3609.795,1033.499,3599.742,1043.132,3565.818z"/>
	<g>
		<rect x="1255.48" y="3468.888" fill="#64505A" width="40.208" height="20.104"/>
		<g>
			<path fill="#64505A" d="M1185.12,3468.887h-40.208c-5.552,0-10.053-4.499-10.053-10.051l0,0c0-5.552,4.5-10.054,10.053-10.054
				h50.261L1185.12,3468.887z"/>
			<path fill="#64505A" d="M1366.062,3468.887h40.206c5.553,0,10.053-4.499,10.053-10.051l0,0c0-5.552-4.5-10.054-10.053-10.054
				h-50.26L1366.062,3468.887z"/>
		</g>
		<g>
			<path fill="#5A4650" d="M1215.277,3539.253c-27.712,0-50.261-22.549-50.261-50.262c0-27.711,22.549-50.258,50.261-50.258
				c27.712,0,50.261,22.547,50.261,50.258C1265.538,3516.704,1242.99,3539.253,1215.277,3539.253z M1215.277,3458.836
				c-16.629,0-30.156,13.527-30.156,30.155c0,16.629,13.527,30.156,30.156,30.156s30.156-13.527,30.156-30.156
				C1245.433,3472.363,1231.907,3458.836,1215.277,3458.836z"/>
			<path fill="#5A4650" d="M1335.901,3539.253c-27.71,0-50.26-22.549-50.26-50.262c0-27.711,22.55-50.258,50.26-50.258
				c27.712,0,50.261,22.547,50.261,50.258C1386.162,3516.704,1363.617,3539.253,1335.901,3539.253z M1335.901,3458.836
				c-16.629,0-30.155,13.527-30.155,30.155c0,16.629,13.526,30.156,30.155,30.156c16.63,0,30.156-13.527,30.156-30.156
				C1366.058,3472.363,1352.533,3458.836,1335.901,3458.836z"/>
		</g>
	</g>
	<path fill="#4959B7" d="M1053.199,3765.176c3.497-5.738,7.938-10.883,13.161-15.186l51.183,44.441
		c11.004,9.552,17.315,23.381,17.315,37.95v136.12h-20.104h-40.208c-16.655,0-30.157-107.501-30.157-124.155v-47.796
		C1044.389,3785.211,1047.566,3774.42,1053.199,3765.176z"/>
</g>
</svg>
