<?xml version="1.0" encoding="utf-8"?>
<!-- Generator: Adobe Illustrator 15.1.0, SVG Export Plug-In . SVG Version: 6.00 Build 0)  -->
<!DOCTYPE svg PUBLIC "-//W3C//DTD SVG 1.1//EN" "http://www.w3.org/Graphics/SVG/1.1/DTD/svg11.dtd">
<svg version="1.1" id="Capa_1" xmlns="http://www.w3.org/2000/svg" xmlns:xlink="http://www.w3.org/1999/xlink" x="0px" y="0px"
	 width="850.395px" height="850.395px" viewBox="0 0 850.395 850.395" enable-background="new 0 0 850.395 850.395"
	 xml:space="preserve">
<g>
	<g>
		<g>
			<path fill="#424A60" d="M2081.115,2918.721h-905.93c-62.824,0-114.174,51.062-114.174,114.173c0,22.377,0,1220.339,0,1240.421
				c0,62.823,51.063,114.172,114.174,114.172h905.93c62.825,0,114.174-51.062,114.174-114.172c0-19.222,0-1218.044,0-1240.421
				c0-19.22-4.589-37.005-12.908-52.783l0,0C2162.588,2942.53,2123.859,2918.721,2081.115,2918.721z"/>
			<path fill="#262B35" d="M2081.115,4328.393h-905.93c-62.824,0-114.174-51.063-114.174-114.174v59.096
				c0,62.823,51.063,114.172,114.174,114.172h905.93c62.825,0,114.174-51.062,114.174-114.172v-59.096
				C2195.289,4277.043,2143.94,4328.393,2081.115,4328.393z"/>
			<path fill="#A4E869" d="M1175.186,3070.188c0,14.343,0,955.845,0,970.188c0,22.09,16.926,40.162,37.58,40.162h830.771
				c20.654,0,37.578-18.072,37.578-40.162c0-14.63,0-956.132,0-970.188c0-22.089-16.924-40.161-37.578-40.161h-830.771
				C1192.111,3030.025,1175.186,3048.099,1175.186,3070.188z"/>
			<path fill="#96C46A" d="M2043.537,4021.443h-830.771c-20.654,0-37.58-18.072-37.58-40.162v59.095
				c0,22.089,16.926,40.162,37.58,40.162h830.771c20.654,0,37.578-18.073,37.578-40.162v-59.095
				C2081.115,4003.657,2064.191,4021.443,2043.537,4021.443z"/>
			<circle fill="#9397A3" cx="1628.151" cy="4215.94" r="62.25"/>
		</g>
		<g>
			<path fill="#424A60" d="M935.65,4387.486H425.024c-38.153,0-69.135-30.98-69.135-69.134V3280.462
				c0-38.153,30.981-69.136,69.135-69.136H935.65c38.154,0,69.137,30.982,69.137,69.136v1037.891
				C1004.785,4356.506,973.805,4387.486,935.65,4387.486z"/>
			<rect x="355.89" y="3332.959" fill="#A4E869" width="648.896" height="810.978"/>
			<circle fill="#9397A3" cx="680.338" cy="4265.854" r="60.816"/>
			<path fill="#262B35" d="M680.338,3292.51h-81.184c-11.188,0-20.368-9.18-20.368-20.367c0-11.188,9.18-20.367,20.368-20.367
				h81.184c11.188,0,20.367,9.179,20.367,20.367C700.705,3283.33,691.525,3292.51,680.338,3292.51z"/>
			<path fill="#262B35" d="M761.521,3292.51h-20.367c-11.188,0-20.368-9.18-20.368-20.367c0-11.188,9.18-20.367,20.368-20.367
				h20.367c11.188,0,20.367,9.179,20.367,20.367C781.603,3283.33,772.709,3292.51,761.521,3292.51z"/>
			<rect x="355.89" y="3332.959" fill="#96C46A" width="61.103" height="810.978"/>
		</g>
	</g>
	<g>
		<path fill="#424A60" d="M1628.151,3650.809c-14.631,0-26.68,11.762-26.68,26.393c0,14.63,11.762,26.392,26.68,26.392
			c14.629,0,26.679-11.762,26.679-26.392C1654.83,3662.57,1643.068,3650.809,1628.151,3650.809z M1832.976,3452.009
			c-54.792-51.349-127.37-79.463-204.538-79.463c-77.167,0-150.032,28.114-204.537,79.463c-9.754,9.18-9.754,23.81,0,32.704
			c4.878,4.59,11.188,6.884,17.499,6.884s12.623-2.294,17.499-6.884c45.325-42.457,105.568-63.398,169.826-63.398
			c64.259,0,124.501,20.941,169.826,63.398c9.754,9.18,25.244,9.18,34.999,0C1842.441,3475.818,1842.441,3461.188,1832.976,3452.009
			z M1627.863,3465.205c-57.086,0-110.73,22.089-151.178,62.25c-10.041,10.041-10.041,26.105,0,36.146
			c5.162,4.876,11.76,7.458,18.358,7.458s13.196-2.582,18.359-7.458c30.695-30.408,71.431-48.769,114.748-48.769
			c43.316,0,84.052,18.36,114.746,48.769c10.041,10.04,26.393,10.04,36.434,0c10.039-10.041,10.039-26.105,0-36.146
			C1738.883,3487.294,1684.951,3465.205,1627.863,3465.205z M1628.151,3557.863c-32.417,0-62.538,12.909-85.487,36.433
			c-9.467,9.754-9.467,25.532,0,35.284c4.59,4.878,10.9,7.172,17.212,7.172s12.336-2.294,17.212-7.172
			c13.771-14.056,31.844-22.662,51.35-22.662c19.221,0,37.58,8.606,51.351,22.662c9.466,9.754,24.67,9.754,34.137,0
			c9.468-9.752,9.468-25.53,0-35.284C1690.976,3570.772,1660.567,3557.863,1628.151,3557.863z"/>
	</g>
	<g>
		<path fill="#424A60" d="M680.338,3862.805c-14.631,0-26.679,11.762-26.679,26.392s11.762,26.392,26.679,26.392
			c14.63,0,26.678-11.762,26.678-26.392C707.016,3874.854,694.968,3862.805,680.338,3862.805z M884.875,3664.005
			c-54.792-51.349-127.369-79.463-204.537-79.463s-150.032,28.114-204.537,79.463c-9.754,9.18-9.754,23.81,0,32.702
			c4.877,4.591,11.188,6.886,17.498,6.886c6.312,0,12.623-2.295,17.5-6.886c45.324-42.456,105.567-63.396,169.826-63.396
			c64.258,0,124.5,20.94,169.826,63.396c9.753,9.181,25.243,9.181,34.997,0C894.629,3687.814,894.629,3673.185,884.875,3664.005z
			 M680.051,3677.201c-57.086,0-110.73,22.088-151.18,62.25c-10.04,10.041-10.04,26.105,0,36.146
			c5.164,4.877,11.762,7.459,18.359,7.459s13.195-2.582,18.359-7.459c30.695-30.408,71.431-48.768,114.748-48.768
			c43.316,0,84.053,18.359,114.747,48.768c10.04,10.041,26.392,10.041,36.433,0c10.04-10.04,10.04-26.104,0-36.146
			C790.782,3699.289,737.138,3677.201,680.051,3677.201z M680.338,3769.859c-32.416,0-62.537,12.909-85.487,36.433
			c-9.466,9.753-9.466,25.531,0,35.284c4.59,4.877,10.901,7.172,17.212,7.172c6.312,0,12.336-2.295,17.213-7.172
			c13.77-14.057,31.842-22.662,51.35-22.662c19.219,0,37.579,8.605,51.349,22.662c9.467,9.754,24.671,9.754,34.138,0
			s9.467-25.531,0-35.284C742.875,3783.056,712.754,3769.859,680.338,3769.859z"/>
	</g>
</g>
<g>
	<g>
		<g>
			<path fill="#424A60" d="M2081.115,2918.721h-905.93c-62.824,0-114.174,51.062-114.174,114.173c0,22.377,0,1220.339,0,1240.421
				c0,62.823,51.063,114.172,114.174,114.172h905.93c62.825,0,114.174-51.062,114.174-114.172c0-19.222,0-1218.044,0-1240.421
				c0-19.22-4.589-37.005-12.908-52.783l0,0C2162.588,2942.53,2123.859,2918.721,2081.115,2918.721z"/>
			<path fill="#262B35" d="M2081.115,4328.393h-905.93c-62.824,0-114.174-51.063-114.174-114.174v59.096
				c0,62.823,51.063,114.172,114.174,114.172h905.93c62.825,0,114.174-51.062,114.174-114.172v-59.096
				C2195.289,4277.043,2143.94,4328.393,2081.115,4328.393z"/>
			<path fill="#A4E869" d="M1175.186,3070.188c0,14.343,0,955.845,0,970.188c0,22.09,16.926,40.162,37.58,40.162h830.771
				c20.654,0,37.578-18.072,37.578-40.162c0-14.63,0-956.132,0-970.188c0-22.089-16.924-40.161-37.578-40.161h-830.771
				C1192.111,3030.025,1175.186,3048.099,1175.186,3070.188z"/>
			<path fill="#96C46A" d="M2043.537,4021.443h-830.771c-20.654,0-37.58-18.072-37.58-40.162v59.095
				c0,22.089,16.926,40.162,37.58,40.162h830.771c20.654,0,37.578-18.073,37.578-40.162v-59.095
				C2081.115,4003.657,2064.191,4021.443,2043.537,4021.443z"/>
			<circle fill="#9397A3" cx="1628.151" cy="4215.94" r="62.25"/>
		</g>
		<g>
			<path fill="#424A60" d="M935.65,4387.486H425.024c-38.153,0-69.135-30.98-69.135-69.134V3280.462
				c0-38.153,30.981-69.136,69.135-69.136H935.65c38.154,0,69.137,30.982,69.137,69.136v1037.891
				C1004.785,4356.506,973.805,4387.486,935.65,4387.486z"/>
			<rect x="355.89" y="3332.959" fill="#A4E869" width="648.896" height="810.978"/>
			<circle fill="#9397A3" cx="680.338" cy="4265.854" r="60.816"/>
			<path fill="#262B35" d="M680.338,3292.51h-81.184c-11.188,0-20.368-9.18-20.368-20.367c0-11.188,9.18-20.367,20.368-20.367
				h81.184c11.188,0,20.367,9.179,20.367,20.367C700.705,3283.33,691.525,3292.51,680.338,3292.51z"/>
			<path fill="#262B35" d="M761.521,3292.51h-20.367c-11.188,0-20.368-9.18-20.368-20.367c0-11.188,9.18-20.367,20.368-20.367
				h20.367c11.188,0,20.367,9.179,20.367,20.367C781.603,3283.33,772.709,3292.51,761.521,3292.51z"/>
			<rect x="355.89" y="3332.959" fill="#96C46A" width="61.103" height="810.978"/>
		</g>
	</g>
	<g>
		<path fill="#424A60" d="M1628.151,3650.809c-14.631,0-26.68,11.762-26.68,26.393c0,14.63,11.762,26.392,26.68,26.392
			c14.629,0,26.679-11.762,26.679-26.392C1654.83,3662.57,1643.068,3650.809,1628.151,3650.809z M1832.976,3452.009
			c-54.792-51.349-127.37-79.463-204.538-79.463c-77.167,0-150.032,28.114-204.537,79.463c-9.754,9.18-9.754,23.81,0,32.704
			c4.878,4.59,11.188,6.884,17.499,6.884s12.623-2.294,17.499-6.884c45.325-42.457,105.568-63.398,169.826-63.398
			c64.259,0,124.501,20.941,169.826,63.398c9.754,9.18,25.244,9.18,34.999,0C1842.441,3475.818,1842.441,3461.188,1832.976,3452.009
			z M1627.863,3465.205c-57.086,0-110.73,22.089-151.178,62.25c-10.041,10.041-10.041,26.105,0,36.146
			c5.162,4.876,11.76,7.458,18.358,7.458s13.196-2.582,18.359-7.458c30.695-30.408,71.431-48.769,114.748-48.769
			c43.316,0,84.052,18.36,114.746,48.769c10.041,10.04,26.393,10.04,36.434,0c10.039-10.041,10.039-26.105,0-36.146
			C1738.883,3487.294,1684.951,3465.205,1627.863,3465.205z M1628.151,3557.863c-32.417,0-62.538,12.909-85.487,36.433
			c-9.467,9.754-9.467,25.532,0,35.284c4.59,4.878,10.9,7.172,17.212,7.172s12.336-2.294,17.212-7.172
			c13.771-14.056,31.844-22.662,51.35-22.662c19.221,0,37.58,8.606,51.351,22.662c9.466,9.754,24.67,9.754,34.137,0
			c9.468-9.752,9.468-25.53,0-35.284C1690.976,3570.772,1660.567,3557.863,1628.151,3557.863z"/>
	</g>
	<g>
		<path fill="#424A60" d="M680.338,3862.805c-14.631,0-26.679,11.762-26.679,26.392s11.762,26.392,26.679,26.392
			c14.63,0,26.678-11.762,26.678-26.392C707.016,3874.854,694.968,3862.805,680.338,3862.805z M884.875,3664.005
			c-54.792-51.349-127.369-79.463-204.537-79.463s-150.032,28.114-204.537,79.463c-9.754,9.18-9.754,23.81,0,32.702
			c4.877,4.591,11.188,6.886,17.498,6.886c6.312,0,12.623-2.295,17.5-6.886c45.324-42.456,105.567-63.396,169.826-63.396
			c64.258,0,124.5,20.94,169.826,63.396c9.753,9.181,25.243,9.181,34.997,0C894.629,3687.814,894.629,3673.185,884.875,3664.005z
			 M680.051,3677.201c-57.086,0-110.73,22.088-151.18,62.25c-10.04,10.041-10.04,26.105,0,36.146
			c5.164,4.877,11.762,7.459,18.359,7.459s13.195-2.582,18.359-7.459c30.695-30.408,71.431-48.768,114.748-48.768
			c43.316,0,84.053,18.359,114.747,48.768c10.04,10.041,26.392,10.041,36.433,0c10.04-10.04,10.04-26.104,0-36.146
			C790.782,3699.289,737.138,3677.201,680.051,3677.201z M680.338,3769.859c-32.416,0-62.537,12.909-85.487,36.433
			c-9.466,9.753-9.466,25.531,0,35.284c4.59,4.877,10.901,7.172,17.212,7.172c6.312,0,12.336-2.295,17.213-7.172
			c13.77-14.057,31.842-22.662,51.35-22.662c19.219,0,37.579,8.605,51.349,22.662c9.467,9.754,24.671,9.754,34.138,0
			s9.467-25.531,0-35.284C742.875,3783.056,712.754,3769.859,680.338,3769.859z"/>
	</g>
</g>
<g>
	<g>
		<g>
			<path fill="#424A60" d="M641.958,227.582H398.181c-16.906,0-30.724,13.741-30.724,30.723c0,6.021,0,328.382,0,333.786
				c0,16.905,13.741,30.724,30.724,30.724h243.777c16.903,0,30.722-13.741,30.722-30.724c0-5.172,0-327.764,0-333.786
				c0-5.172-1.234-9.957-3.473-14.204l0,0C663.88,233.989,653.459,227.582,641.958,227.582z"/>
			<path fill="#262B35" d="M641.958,606.911H398.181c-16.906,0-30.724-13.741-30.724-30.723v15.901
				c0,16.905,13.741,30.724,30.724,30.724h243.777c16.903,0,30.722-13.741,30.722-30.724v-15.901
				C672.68,593.094,658.861,606.911,641.958,606.911z"/>
			<path fill="#A4E869" d="M398.181,268.34c0,3.859,0,257.21,0,261.068c0,5.945,4.553,10.809,10.112,10.809h223.551
				c5.56,0,10.114-4.863,10.114-10.809c0-3.936,0-257.286,0-261.068c0-5.944-4.555-10.806-10.114-10.806H408.292
				C402.734,257.532,398.181,262.396,398.181,268.34z"/>
			<path fill="#96C46A" d="M631.844,524.314H408.292c-5.559,0-10.112-4.863-10.112-10.809v15.902
				c0,5.944,4.553,10.809,10.112,10.809h223.551c5.56,0,10.114-4.864,10.114-10.809v-15.902
				C641.958,519.529,637.403,524.314,631.844,524.314z"/>
			<circle fill="#9397A3" cx="520.068" cy="576.651" r="16.751"/>
		</g>
		<g>
			<path fill="#424A60" d="M333.723,622.813H196.318c-10.267,0-18.604-8.336-18.604-18.604V324.923
				c0-10.268,8.337-18.604,18.604-18.604h137.405c10.267,0,18.604,8.337,18.604,18.604V604.21
				C352.328,614.478,343.99,622.813,333.723,622.813z"/>
			<rect x="177.715" y="339.049" fill="#A4E869" width="174.613" height="218.227"/>
			<circle fill="#9397A3" cx="265.021" cy="590.083" r="16.365"/>
			<path fill="#262B35" d="M265.021,328.165h-21.846c-3.01,0-5.481-2.47-5.481-5.48c0-3.011,2.471-5.481,5.481-5.481h21.846
				c3.009,0,5.479,2.47,5.479,5.481C270.501,325.695,268.031,328.165,265.021,328.165z"/>
			<path fill="#262B35" d="M286.867,328.165h-5.481c-3.01,0-5.481-2.47-5.481-5.48c0-3.011,2.471-5.481,5.481-5.481h5.481
				c3.011,0,5.48,2.47,5.48,5.481C292.271,325.695,289.878,328.165,286.867,328.165z"/>
			<rect x="177.715" y="339.049" fill="#96C46A" width="16.442" height="218.227"/>
		</g>
	</g>
	<g>
		<path fill="#424A60" d="M520.068,424.58c-3.936,0-7.181,3.164-7.181,7.102c0,3.937,3.168,7.102,7.181,7.102
			c3.937,0,7.179-3.165,7.179-7.102C527.247,427.744,524.082,424.58,520.068,424.58z M575.185,371.084
			c-14.744-13.817-34.273-21.383-55.038-21.383c-20.766,0-40.375,7.565-55.041,21.383c-2.624,2.471-2.624,6.407,0,8.801
			c1.314,1.235,3.011,1.852,4.709,1.852c1.699,0,3.397-0.617,4.709-1.852c12.197-11.425,28.407-17.06,45.7-17.06
			c17.29,0,33.5,5.635,45.697,17.06c2.626,2.47,6.794,2.47,9.418,0C577.733,377.491,577.733,373.555,575.185,371.084z
			 M519.991,374.636c-15.362,0-29.796,5.944-40.681,16.751c-2.702,2.702-2.702,7.024,0,9.726c1.389,1.312,3.165,2.007,4.94,2.007
			c1.776,0,3.55-0.695,4.938-2.007c8.262-8.183,19.224-13.123,30.879-13.123c11.656,0,22.618,4.94,30.877,13.123
			c2.701,2.703,7.104,2.703,9.805,0c2.701-2.702,2.701-7.024,0-9.726C549.865,380.58,535.354,374.636,519.991,374.636z
			 M520.068,399.569c-8.723,0-16.828,3.475-23.004,9.804c-2.547,2.625-2.547,6.871,0,9.495c1.234,1.313,2.934,1.93,4.632,1.93
			s3.319-0.617,4.632-1.93c3.706-3.782,8.57-6.098,13.818-6.098c5.17,0,10.111,2.315,13.817,6.098c2.547,2.625,6.638,2.625,9.185,0
			c2.549-2.624,2.549-6.87,0-9.495C536.975,403.043,528.791,399.569,520.068,399.569z"/>
	</g>
	<g>
		<path fill="#424A60" d="M265.021,481.626c-3.938,0-7.18,3.164-7.18,7.103c0,3.936,3.165,7.102,7.18,7.102
			c3.936,0,7.178-3.166,7.178-7.102C272.2,484.867,268.957,481.626,265.021,481.626z M320.061,428.131
			c-14.745-13.817-34.274-21.383-55.039-21.383c-20.766,0-40.374,7.565-55.04,21.383c-2.625,2.471-2.625,6.407,0,8.799
			c1.312,1.235,3.01,1.854,4.709,1.854s3.396-0.618,4.709-1.854c12.196-11.424,28.407-17.059,45.698-17.059
			c17.292,0,33.502,5.635,45.699,17.059c2.624,2.471,6.793,2.471,9.417,0C322.685,434.538,322.685,430.602,320.061,428.131z
			 M264.944,431.682c-15.362,0-29.797,5.944-40.681,16.752c-2.703,2.7-2.703,7.023,0,9.726c1.389,1.313,3.164,2.008,4.94,2.008
			s3.552-0.694,4.941-2.008c8.26-8.183,19.221-13.124,30.878-13.124c11.655,0,22.618,4.941,30.877,13.124
			c2.701,2.701,7.101,2.701,9.802,0c2.703-2.702,2.703-7.025,0-9.726C294.74,437.626,280.306,431.682,264.944,431.682z
			 M265.021,456.616c-8.724,0-16.829,3.474-23.005,9.803c-2.546,2.625-2.546,6.87,0,9.494c1.235,1.313,2.934,1.931,4.632,1.931
			c1.699,0,3.32-0.617,4.632-1.931c3.705-3.781,8.569-6.099,13.817-6.099c5.173,0,10.113,2.317,13.818,6.099
			c2.548,2.626,6.638,2.626,9.186,0c2.547-2.624,2.547-6.869,0-9.494C281.849,460.167,273.744,456.616,265.021,456.616z"/>
	</g>
</g>
</svg>
