<?xml version="1.0" encoding="utf-8"?>
<!-- Generator: Adobe Illustrator 22.1.0, SVG Export Plug-In . SVG Version: 6.00 Build 0)  -->
<svg version="1.1" id="Capa_1" xmlns="http://www.w3.org/2000/svg" xmlns:xlink="http://www.w3.org/1999/xlink" x="0px" y="0px"
	 viewBox="0 0 850.4 850.4" style="enable-background:new 0 0 850.4 850.4;" xml:space="preserve">
<style type="text/css">
	.st0{fill:#694B4B;}
	.st1{fill:#5A4146;}
	.st2{fill:#D29B6E;}
	.st3{fill:#57A1EA;}
	.st4{fill:#2D66AA;}
	.st5{fill:#F0C087;}
	.st6{fill:#E6AF78;}
	.st7{fill:#4FC0DB;}
	.st8{fill:#E6BE8A;}
	.st9{fill:#FFEBB7;}
	.st10{fill:#FFD788;}
	.st11{fill:#868491;}
	.st12{fill:#B4B6BC;}
	.st13{fill:#5D647F;}
	.st14{fill:#FFC552;}
	.st15{fill:#493842;}
	.st16{fill:#A06E50;}
</style>
<g>
	<path class="st0" d="M425.2,246.9c-88.3,0-108.4,88.7-109.2,199.3c0,4.6,2.7,8.7,6.8,10.7c15.6,7.3,43.3,12.9,64.9,16.3h75
		c21.5-3.4,49.3-9,64.9-16.3c4.1-1.9,6.8-6.1,6.8-10.7C533.6,335.6,513.5,246.9,425.2,246.9z"/>
	<path class="st1" d="M316,446.1c0,4.6,2.7,8.7,6.8,10.7c15.6,7.3,43.3,12.9,64.9,16.3h37.5V344c0,0-43.9,2.1-35.3,0
		c35.3-8.8,105.9-53,64.9-93.2c-8.9-2.6-18.7-3.9-29.5-3.9C336.9,246.9,316.8,335.6,316,446.1z"/>
	<path class="st2" d="M557.8,679.4v-136c0-14.3-8.6-27.1-21.7-32.6l-62.3-26c-5.8-2.4-9.6-8.1-9.6-14.4v-18.9h-78v18.9
		c0,6.3-3.8,12-9.6,14.4l-62.3,26c-13.2,5.5-21.7,18.3-21.7,32.6v136H557.8z"/>
	<path class="st3" d="M536.1,510.8l-43.8-18.2c-16.1,19.5-32.1,34.1-46,44.9h-42.2c-13.9-10.8-29.9-25.4-46-44.9l-43.8,18.2
		c-13.2,5.5-21.7,18.3-21.7,32.6v136h265.2v-136C557.8,529.2,549.2,516.3,536.1,510.8z"/>
	<g>
		<path class="st4" d="M297.6,525.4c-3.2,5.4-5.1,11.5-5.1,18.1v136h53.2V573.5L297.6,525.4z"/>
		<path class="st4" d="M552.7,525.4c3.2,5.4,5.1,11.5,5.1,18.1v136h-53.2V573.5L552.7,525.4z"/>
	</g>
	<path class="st5" d="M502.6,354.7l-5.7,63c-0.9,10.3-6.9,19.4-15.9,24.5l-40.6,22.6c-9.4,5.2-20.9,5.2-30.3,0l-40.6-22.6
		c-9-5-15-14.2-15.9-24.5l-5.5-60.8c-0.4-4.7,2.9-8.9,7.6-9.5c20.8-2.4,75.6-10.1,108.7-26.1c4.2-2,9.1-0.4,11.4,3.6
		c3.8,6.6,10.8,15.8,22.3,21.3C501.2,347.7,502.9,351.2,502.6,354.7z"/>
	<path class="st6" d="M348,356.8l5.5,60.8c0.9,10.3,6.9,19.4,15.9,24.5l40.6,22.6c3.7,2.1,7.8,3.1,11.9,3.5L380.7,436
		c-2-4.9-3.2-10-3.6-15.3l-4.9-58.3c-0.4-4.5,2.7-8.5,7-9.4c18.8-3.9,71.2-19.6,87.9-26.7c5.5,7.6,11.3,30.1,23.2,35.8
		c2.4,1.1,3.5,1.7,11.3,2.3l0.9-9.7c0.3-3.5-1.5-7-4.7-8.5c-11.5-5.5-18.5-14.7-22.3-21.3c-2.3-4-7.2-5.7-11.4-3.6
		c-33.1,16.1-87.8,23.7-108.7,26.1C350.9,347.9,347.5,352.1,348,356.8z"/>
	<path class="st4" d="M344.5,503.9c15.1,18.2,31.5,34.2,48.8,47.6l4.8,3.7h6h42.2h6l4.8-3.7c17.3-13.4,33.7-29.4,48.8-47.6l3.4-4.2
		l-17-7.1c-16.1,19.5-32.1,34.1-46,44.9h-42.2c-13.9-10.8-29.9-25.4-46-44.9l-17,7.1L344.5,503.9z"/>
</g>
<g>
	<g>
		<path class="st7" d="M526.5,542.8H323.9c-6,0-10.8,4.9-10.8,10.8v119.3c0,6,4.9,10.8,10.8,10.8h202.5c6,0,10.8-4.9,10.8-10.8
			V553.6C537.3,547.6,532.4,542.8,526.5,542.8z"/>
	</g>
	<g>
		<path class="st8" d="M522.9,654.9v10.8c0,2-1.6,3.6-3.6,3.6H331.3c-2,0-3.6-1.6-3.6-3.6v-10.8l21.6-10.8l86.8,3.6l72.3-3.6
			L522.9,654.9z"/>
	</g>
	<g>
		<path class="st9" d="M332.7,659.9c29.7-12.3,63.3-11.5,92.6,2.2V531.9c-30.2-14.2-65.1-14.5-95.5-1c-1.3,0.6-2.1,1.9-2.1,3.3
			v122.3C327.7,659.2,330.3,660.9,332.7,659.9z"/>
	</g>
	<g>
		<path class="st10" d="M425.3,662.1c29.2-13.8,62.9-14.5,92.6-2.2c2.4,1,5.1-0.7,5.1-3.3V534.3c0-1.4-0.8-2.8-2.1-3.3
			c-30.4-13.6-65.3-13.2-95.5,1V662.1z"/>
	</g>
	<g>
		<g>
			<path class="st11" d="M439.8,638.5c-1.5,0-3-1-3.5-2.5c-0.6-1.9,0.5-3.9,2.4-4.5c3.7-1.1,7.4-2.1,11.2-2.9
				c1.9-0.4,3.9,0.8,4.3,2.8c0.4,2-0.8,3.9-2.8,4.3c-3.5,0.7-7.1,1.7-10.5,2.7C440.5,638.4,440.1,638.5,439.8,638.5z"/>
		</g>
	</g>
	<g>
		<g>
			<path class="st11" d="M508.5,638.5c-0.4,0-0.7-0.1-1.1-0.2c-13.6-4.3-27.8-5.9-42-4.8c-2,0.1-3.7-1.3-3.9-3.3
				c-0.2-2,1.3-3.7,3.3-3.9c15.2-1.2,30.2,0.5,44.8,5.1c1.9,0.6,3,2.6,2.4,4.5C511.4,637.5,510,638.5,508.5,638.5z"/>
		</g>
	</g>
	<g>
		<g>
			<path class="st11" d="M508.5,624c-0.4,0-0.7-0.1-1.1-0.2c-21.8-6.8-44.8-6.8-66.5,0c-1.9,0.6-3.9-0.5-4.5-2.4
				c-0.6-1.9,0.5-3.9,2.4-4.5c23.2-7.3,47.7-7.3,70.9,0c1.9,0.6,3,2.6,2.4,4.5C511.4,623,510,624,508.5,624z"/>
		</g>
	</g>
	<g>
		<g>
			<path class="st11" d="M439.8,609.5c-1.5,0-3-1-3.5-2.5c-0.6-1.9,0.5-3.9,2.4-4.5c13.3-4.2,27.1-6,41-5.3c2,0.1,3.5,1.8,3.4,3.8
				c-0.1,2-1.8,3.5-3.8,3.4c-13.1-0.6-26,1.1-38.5,5C440.5,609.5,440.1,609.5,439.8,609.5z"/>
		</g>
	</g>
	<g>
		<g>
			<path class="st11" d="M508.5,609.5c-0.4,0-0.7-0.1-1.1-0.2c-4.6-1.4-9.3-2.6-14-3.4c-2-0.3-3.3-2.2-2.9-4.2
				c0.3-2,2.2-3.3,4.2-2.9c5,0.9,10.1,2.1,14.9,3.6c1.9,0.6,3,2.6,2.4,4.5C511.4,608.6,510,609.5,508.5,609.5z"/>
		</g>
	</g>
	<g>
		<g>
			<path class="st11" d="M508.5,595c-0.4,0-0.7-0.1-1.1-0.2c-21.8-6.8-44.8-6.8-66.5,0c-1.9,0.6-3.9-0.5-4.5-2.4
				c-0.6-1.9,0.5-3.9,2.4-4.5c23.2-7.3,47.7-7.3,70.9,0c1.9,0.6,3,2.6,2.4,4.5C511.4,594.1,510,595,508.5,595z"/>
		</g>
	</g>
	<g>
		<g>
			<path class="st11" d="M439.8,580.6c-1.5,0-3-1-3.5-2.5c-0.6-1.9,0.5-3.9,2.4-4.5c7.3-2.3,14.8-3.9,22.4-4.7c2-0.2,3.8,1.2,4,3.2
				c0.2,2-1.2,3.8-3.2,4c-7.1,0.8-14.2,2.3-21,4.4C440.5,580.5,440.1,580.6,439.8,580.6z"/>
		</g>
	</g>
	<g>
		<g>
			<path class="st11" d="M508.5,580.6c-0.4,0-0.7-0.1-1.1-0.2c-10.2-3.2-20.8-4.9-31.5-5.1c-2,0-3.6-1.7-3.6-3.7
				c0-2,1.8-3.7,3.7-3.6c11.4,0.2,22.7,2,33.6,5.4c1.9,0.6,3,2.6,2.4,4.5C511.4,579.6,510,580.6,508.5,580.6z"/>
		</g>
	</g>
	<g>
		<g>
			<path class="st11" d="M439.8,566.2c-1.5,0-3-1-3.5-2.5c-0.6-1.9,0.5-3.9,2.4-4.5c15.8-4.9,32.1-6.5,48.5-4.7c2,0.2,3.4,2,3.2,4
				c-0.2,2-2,3.5-4,3.2c-15.4-1.7-30.7-0.2-45.5,4.4C440.5,566.1,440.1,566.2,439.8,566.2z"/>
		</g>
	</g>
	<g>
		<g>
			<path class="st11" d="M508.5,566.2c-0.4,0-0.7-0.1-1.1-0.2c-2.3-0.7-4.7-1.4-7-2c-1.9-0.5-3.1-2.4-2.7-4.4
				c0.5-1.9,2.4-3.1,4.4-2.7c2.5,0.6,5,1.3,7.5,2.1c1.9,0.6,3,2.6,2.4,4.5C511.4,565.2,510,566.2,508.5,566.2z"/>
		</g>
	</g>
	<g>
		<g>
			<path class="st11" d="M439.8,551.6c-1.5,0-3-1-3.5-2.5c-0.6-1.9,0.5-3.9,2.4-4.5c2.5-0.8,5-1.5,7.5-2.1c1.9-0.5,3.9,0.7,4.4,2.7
				s-0.7,3.9-2.7,4.4c-2.3,0.6-4.7,1.2-7,1.9C440.5,551.6,440.1,551.6,439.8,551.6z"/>
		</g>
	</g>
	<g>
		<g>
			<path class="st11" d="M508.5,551.6c-0.4,0-0.7-0.1-1.1-0.2c-14.8-4.6-30.1-6.1-45.5-4.4c-2,0.2-3.8-1.2-4-3.2
				c-0.2-2,1.2-3.8,3.2-4c16.4-1.8,32.7-0.2,48.5,4.7c1.9,0.6,3,2.6,2.4,4.5C511.4,550.7,510,551.6,508.5,551.6z"/>
		</g>
	</g>
	<g>
		<g>
			<path class="st12" d="M342.1,638.5c-1.5,0-3-1-3.5-2.5c-0.6-1.9,0.5-3.9,2.4-4.5c3.7-1.1,7.4-2.1,11.2-2.9c2-0.4,3.9,0.8,4.3,2.8
				c0.4,2-0.8,3.9-2.8,4.3c-3.5,0.7-7.1,1.7-10.5,2.7C342.8,638.4,342.5,638.5,342.1,638.5z"/>
		</g>
	</g>
	<g>
		<g>
			<path class="st12" d="M410.8,638.5c-0.4,0-0.7-0.1-1.1-0.2c-13.6-4.3-27.8-5.9-42-4.8c-2,0.1-3.7-1.3-3.9-3.3
				c-0.2-2,1.3-3.7,3.3-3.9c15.2-1.2,30.2,0.5,44.8,5.1c1.9,0.6,3,2.6,2.4,4.5C413.8,637.5,412.4,638.5,410.8,638.5z"/>
		</g>
	</g>
	<g>
		<g>
			<path class="st12" d="M410.8,624c-0.4,0-0.7-0.1-1.1-0.2c-21.8-6.8-44.8-6.8-66.5,0c-1.9,0.6-3.9-0.5-4.5-2.4
				c-0.6-1.9,0.5-3.9,2.4-4.5c23.2-7.3,47.7-7.3,70.9,0c1.9,0.6,3,2.6,2.4,4.5C413.8,623,412.4,624,410.8,624z"/>
		</g>
	</g>
	<g>
		<g>
			<path class="st12" d="M342.1,609.5c-1.5,0-3-1-3.5-2.5c-0.6-1.9,0.5-3.9,2.4-4.5c13.3-4.2,27.1-6,41-5.3c2,0.1,3.5,1.8,3.4,3.8
				c-0.1,2-1.8,3.5-3.8,3.4c-13.1-0.6-26,1.1-38.5,5C342.8,609.5,342.5,609.5,342.1,609.5z"/>
		</g>
	</g>
	<g>
		<g>
			<path class="st12" d="M410.8,609.5c-0.4,0-0.7-0.1-1.1-0.2c-4.6-1.4-9.3-2.6-14-3.4c-2-0.3-3.3-2.2-2.9-4.2
				c0.3-2,2.2-3.3,4.2-2.9c5,0.9,10.1,2.1,14.9,3.6c1.9,0.6,3,2.6,2.4,4.5C413.8,608.6,412.4,609.5,410.8,609.5z"/>
		</g>
	</g>
	<g>
		<g>
			<path class="st12" d="M342.1,595c-1.5,0-3-1-3.5-2.5c-0.6-1.9,0.5-3.9,2.4-4.5c20.6-6.5,42.5-7.2,63.4-2.1
				c1.9,0.5,3.1,2.4,2.7,4.4c-0.5,1.9-2.4,3.1-4.4,2.7c-19.7-4.8-40.2-4.1-59.5,1.9C342.8,595,342.5,595,342.1,595z"/>
		</g>
	</g>
	<g>
		<g>
			<path class="st12" d="M342.1,580.6c-1.5,0-3-1-3.5-2.5c-0.6-1.9,0.5-3.9,2.4-4.5c7.3-2.3,14.8-3.9,22.4-4.7c2-0.2,3.8,1.2,4,3.2
				c0.2,2-1.2,3.8-3.2,4c-7.1,0.8-14.2,2.3-21,4.4C342.8,580.5,342.5,580.6,342.1,580.6z"/>
		</g>
	</g>
	<g>
		<g>
			<path class="st12" d="M403.6,578.6c-0.3,0-0.6,0-0.9-0.1c-8-2-16.3-3-24.5-3.1c-2,0-3.6-1.7-3.6-3.7c0-2,1.6-3.7,3.7-3.6
				c8.8,0.1,17.6,1.3,26.1,3.3c1.9,0.5,3.1,2.4,2.7,4.4C406.7,577.5,405.2,578.6,403.6,578.6z"/>
		</g>
	</g>
	<g>
		<g>
			<path class="st12" d="M342.1,566.2c-1.5,0-3-1-3.5-2.5c-0.6-1.9,0.5-3.9,2.4-4.5c15.8-4.9,32.1-6.5,48.5-4.7c2,0.2,3.4,2,3.2,4
				c-0.2,2-2,3.5-4,3.2c-15.4-1.7-30.7-0.2-45.5,4.4C342.8,566.1,342.5,566.2,342.1,566.2z"/>
		</g>
	</g>
	<g>
		<g>
			<path class="st12" d="M342.1,551.6c-1.5,0-3-1-3.5-2.5c-0.6-1.9,0.5-3.9,2.4-4.5c2.5-0.8,5-1.5,7.5-2.1c1.9-0.5,3.9,0.7,4.4,2.7
				s-0.7,3.9-2.7,4.4c-2.3,0.6-4.7,1.2-7,1.9C342.8,551.6,342.5,551.6,342.1,551.6z"/>
		</g>
	</g>
	<g>
		<g>
			<path class="st12" d="M403.6,549.6c-0.3,0-0.6,0-0.9-0.1c-12.6-3.1-25.6-3.9-38.5-2.5c-2,0.2-3.8-1.2-4-3.2c-0.2-2,1.2-3.8,3.2-4
				c13.8-1.5,27.6-0.6,41,2.6c1.9,0.5,3.1,2.4,2.7,4.4C406.7,548.5,405.2,549.6,403.6,549.6z"/>
		</g>
	</g>
	<g>
		<path class="st13" d="M403.6,588c0,1.4,1.6,2.3,2.8,1.5l8-5.4l8,5.4c1.2,0.8,2.8-0.1,2.8-1.5v-55.8c0-1.4-0.8-2.7-2.1-3.3
			c-5.6-2.5-11.4-4.5-17.3-6.1c-1.1-0.3-2.3,0.6-2.3,1.8L403.6,588z"/>
	</g>
</g>
<g>
	<path class="st14" d="M590.7,601.7c-91.6,91.6-239.2,94.2-333.9,7.6l7.6-7.6c6-6,3-16.6-5.3-18.5l-76-17.3
		c-7.5-1.7-14.6,5-13.3,12.6l13.8,79.4c1.5,8.6,12.4,12.1,18.6,5.9l7.9-7.9c57.1,53.3,131.1,82.5,209.7,82.5
		c82.2,0,159.4-32,217.6-90.1c4.3-4.3,4.3-11.2,0-15.5l-31.1-31.1C601.9,597.4,595,597.4,590.7,601.7z"/>
	<g>
		<path id="SVGCleanerId_1_1_" class="st14" d="M136,518.2l42.5-11.4c5.8-1.6,9.3-7.7,7.8-13.5c-33.5-125.2,38-254.2,160.4-293
			l2.8,10.4c2.2,8.2,12.9,10.8,18.7,4.6l52.9-57.2c5.2-5.6,3-15.1-4.3-17.8l-75.7-27.7c-8.2-3-16.7,4.7-14.4,13.2l2.9,10.8
			c-74.7,22.8-137,72.3-176.3,140.3c-41.1,71.2-52,154.1-30.7,233.5C124.1,516.2,130.2,519.7,136,518.2z"/>
	</g>
	<path class="st14" d="M499.4,133.6c-5.8-1.5-11.9,2-13.5,7.8l-11.4,42.5c-1.5,5.8,2,11.9,7.8,13.5
		c125.2,33.5,201.2,160.1,173.5,285.4l-10.4-2.8c-8.2-2.2-15.8,5.8-13.3,13.9l23,74.4c2.3,7.4,11.6,10.1,17.5,5.2l61.9-51.7
		c6.7-5.6,4.2-16.8-4.2-19l-10.8-2.9c17.6-76.1,5.9-154.8-33.4-222.8C645.1,205.7,578.8,154.8,499.4,133.6z"/>
</g>
<g>
	<path class="st15" d="M394.5,393.1c-3.9,0-7-3.1-7-7v-7c0-3.9,3.1-7,7-7c3.9,0,7,3.1,7,7v7C401.5,390,398.3,393.1,394.5,393.1z"/>
	<path class="st15" d="M455.9,393.1c-3.9,0-7-3.1-7-7v-7c0-3.9,3.1-7,7-7c3.9,0,7,3.1,7,7v7C462.9,390,459.8,393.1,455.9,393.1z"/>
</g>
<path class="st16" d="M425.2,432.5c-7.3,0-14.1-2.3-18-6.3c-1.9-1.9-1.9-5,0-6.9c1.9-1.9,5-1.9,6.9,0c1.6,1.6,5.5,3.5,11.2,3.5
	c5.7,0,9.6-1.9,11.2-3.5c1.9-1.9,5-1.9,6.9,0c1.9,1.9,1.9,5,0,6.9C439.3,430.2,432.5,432.5,425.2,432.5z"/>
</svg>
